<svg xmlns="http://www.w3.org/2000/svg" width="512" height="512" viewBox="0 0 512 512" version="1.1">
	<path d="M 134.500 46.032 C 88.050 55.793, 52.973 93.317, 45.342 141.409 C 43.238 154.668, 43.933 178.722, 46.804 192.019 C 50.242 207.942, 60.795 238, 62.946 238 C 63.816 238, 65 218.180, 65.001 203.593 C 65.003 174.209, 71.512 138.746, 80.457 119.388 C 91.441 95.614, 110.592 78.603, 132.756 72.935 C 146.756 69.354, 164.451 70.865, 178 76.799 L 182.500 78.769 170.500 78.268 C 160.529 77.851, 157.012 78.123, 149.699 79.877 C 122.764 86.335, 103.106 104.286, 90.851 133.613 C 82.027 154.733, 78.934 177.732, 78.292 227 L 77.830 262.500 87.025 276 C 117.385 320.574, 155.197 356.262, 220 401.506 C 237.979 414.059, 246.058 420.636, 251.558 427.199 L 255.497 431.899 262.370 424.902 C 269.654 417.487, 278.193 410.726, 294.500 399.465 C 341.682 366.881, 376.622 336.730, 401.073 307.500 C 410.149 296.650, 414.999 290.234, 425.914 274.641 L 434.216 262.782 433.731 226.141 C 433.295 193.146, 432.986 187.797, 430.630 172.386 C 427.369 151.054, 424.347 140.274, 418.047 127.500 C 408.883 108.922, 394.307 93.623, 378.500 85.993 C 366.217 80.064, 359.491 78.578, 344.750 78.536 C 337.738 78.516, 332 78.399, 332 78.276 C 332 77.431, 338.819 74.909, 345.940 73.120 C 380.436 64.455, 414.927 83.063, 431.410 119.233 C 437.727 133.095, 442.728 152.083, 444.912 170.500 C 445.723 177.340, 447.898 223.836, 447.987 236.250 C 448.019 240.621, 450.157 236.962, 455 224.250 C 469.892 185.159, 471.755 153.943, 461.095 122.124 C 445.179 74.617, 404.392 44, 357.021 44 C 320.276 44, 283.565 62.706, 262.928 91.947 C 259.413 96.926, 256.304 100.987, 256.019 100.970 C 255.733 100.954, 253.250 97.547, 250.500 93.400 C 235.157 70.260, 204.545 50.544, 176 45.417 C 165.065 43.453, 145.385 43.745, 134.500 46.032 M 162.500 86.646 C 144.937 89.475, 129.448 97.550, 117.360 110.182 C 97.647 130.781, 89.039 158.180, 91.998 190.913 C 95.803 232.995, 115.744 270.958, 155.120 311.076 C 181.693 338.151, 248.449 392, 255.440 392 C 258.859 392, 264.668 387.834, 294.018 364.333 C 346.984 321.924, 371.609 297.695, 390.615 269.288 C 402.755 251.145, 414.533 223.668, 417.959 205.500 C 422.640 180.678, 420.150 153.193, 411.517 134.378 C 402.725 115.219, 386.128 99.194, 367.046 91.441 C 358.165 87.832, 344.101 85.655, 334.375 86.384 C 303.826 88.673, 272.218 110.393, 259.899 137.563 C 258.294 141.103, 256.596 144, 256.126 144 C 255.656 144, 254.499 141.977, 253.555 139.504 C 249.049 127.705, 233.305 109.642, 219.692 100.652 C 212.298 95.769, 201.196 90.642, 193.500 88.557 C 187.494 86.930, 168.146 85.737, 162.500 86.646 M 217.569 142.326 C 214.555 144.530, 216.505 147.253, 223.744 150.949 C 233.361 155.859, 243.628 166.333, 248.300 176 C 251.778 183.193, 255 195.640, 255 201.876 C 255 206.072, 255.939 208, 257.982 208 C 260.043 208, 261 204.379, 261 196.585 C 261 179.316, 272.417 160.685, 288.898 151.060 C 296.959 146.352, 297.479 145.764, 296.011 143.021 C 294.528 140.250, 292.383 140.473, 284.910 144.174 C 276.088 148.543, 264.271 160.385, 260.395 168.740 C 258.803 172.171, 257.275 174.961, 257 174.939 C 256.725 174.917, 255.186 172.130, 253.580 168.745 C 249.530 160.211, 237.715 148.471, 228.877 144.200 C 221.491 140.631, 220.183 140.414, 217.569 142.326 M 190.969 195.488 C 182.090 198.319, 174.319 207.364, 171.425 218.236 C 167.675 232.324, 172.072 248.255, 183.699 262.707 C 193.053 274.335, 209.818 291.284, 211.375 290.686 C 213.682 289.801, 227.207 270.146, 232.273 260.315 C 238.706 247.832, 240.321 241.572, 239.812 231.098 C 239.291 220.409, 236.277 213.288, 229.026 205.622 C 221.939 198.128, 214.080 194.642, 203.500 194.301 C 198.582 194.143, 193.754 194.600, 190.969 195.488 M 165.205 202.128 C 159.850 204.778, 154.436 210.839, 151.136 217.880 C 148.798 222.869, 148.508 224.680, 148.557 234 C 148.602 242.711, 149.040 245.623, 151.125 251.093 C 156.722 265.779, 169.030 279.761, 187.400 292.304 C 192.793 295.987, 197.610 299, 198.103 299 C 199.636 299, 199.088 295.320, 197.250 293.267 C 196.287 292.192, 191.815 288.301, 187.310 284.620 C 171.540 271.734, 161.007 258.204, 157.242 246 C 156.230 242.720, 155.571 237.393, 155.609 232.803 C 155.694 222.691, 159.800 213.704, 166.550 208.857 C 169.573 206.686, 171 204.932, 171 203.389 C 171 200.090, 169.836 199.837, 165.205 202.128 M 105.167 356.750 C 102.397 369.917, 101.652 380.828, 102.935 389.449 C 106.435 412.975, 124.596 432.915, 153.978 445.491 C 158.578 447.459, 171.884 452.216, 183.547 456.061 C 215.841 466.708, 231.116 474.952, 248.229 490.971 L 256.958 499.141 266.252 490.321 C 283.175 474.259, 297.375 466.570, 331.500 454.994 C 343.050 451.076, 356.655 445.906, 361.734 443.506 C 385.747 432.158, 402.718 414.700, 407.469 396.458 C 409.407 389.018, 409.429 374.953, 407.520 364.104 C 405.652 353.494, 405.166 352, 403.575 352 C 402.175 352, 387.242 367.142, 382.572 373.296 C 379.390 377.490, 378.985 377.354, 375.738 370.988 C 374.507 368.575, 372.990 366.445, 372.366 366.255 C 370.823 365.786, 362.565 376.280, 359.326 382.827 C 356.248 389.048, 355.352 398.063, 356.474 411.532 L 357.200 420.244 363.645 413.872 C 373.576 404.053, 376.983 397.826, 378.480 386.750 C 378.988 382.998, 379.517 382, 381 382 C 383.841 382, 384.635 389.305, 382.567 396.419 C 381.284 400.831, 379.571 403.472, 374.560 408.766 C 366.331 417.458, 353.778 425.254, 324.898 439.607 C 312.466 445.786, 299.191 452.734, 295.398 455.049 C 284.634 461.615, 272.796 471.275, 264.808 480.008 C 260.789 484.403, 257.243 487.999, 256.930 487.999 C 256.616 488, 251.666 483.366, 245.930 477.702 C 231.811 463.761, 218.728 455.232, 190.272 441.418 C 177.496 435.216, 162.761 427.622, 157.526 424.541 C 138.793 413.516, 129.003 401.268, 129.001 388.857 C 129 384.711, 129.406 383.058, 130.532 382.626 C 132.196 381.987, 133.992 385.442, 134.010 389.315 C 134.033 394.517, 143.131 408.976, 151.362 416.893 L 154.890 420.286 155.525 417.758 C 155.874 416.367, 156.011 409.202, 155.830 401.836 C 155.516 389.097, 155.343 388.126, 152.293 381.971 C 149.304 375.940, 141.056 366, 139.039 366 C 138.548 366, 136.936 368.475, 135.456 371.500 C 132.556 377.428, 131.630 378.046, 130.058 375.108 C 127.286 369.929, 109.324 352, 106.907 352 C 106.499 352, 105.716 354.137, 105.167 356.750 M 222.795 418.549 C 217.585 421.376, 217.283 430.383, 222.156 437.549 C 223.445 439.444, 229.369 444.680, 235.319 449.183 C 241.270 453.687, 248.376 459.819, 251.110 462.811 L 256.082 468.251 261.605 462.148 C 264.642 458.791, 271.351 452.870, 276.514 448.990 C 290.793 438.257, 294.684 432.878, 293.305 425.774 C 292.663 422.463, 288.570 418.181, 285.253 417.349 C 278.381 415.624, 266.381 424.897, 258.949 437.675 L 255.399 443.780 252.535 438.310 C 247.220 428.159, 234.075 417.003, 227.500 417.062 C 226.400 417.072, 224.283 417.741, 222.795 418.549" stroke="none" fill="#d65252" fill-rule="evenodd"/>
</svg>